<svg id="visual" viewBox="0 0 900 600" width="900" height="600" xmlns="http://www.w3.org/2000/svg" xmlns:xlink="http://www.w3.org/1999/xlink" version="1.1"><rect x="0" y="0" width="900" height="600" fill="#264d6b"></rect><path d="M0 419L21.5 425.7C43 432.3 86 445.7 128.8 450.5C171.7 455.3 214.3 451.7 257.2 454.3C300 457 343 466 385.8 458C428.7 450 471.3 425 514.2 421.2C557 417.3 600 434.7 642.8 435.7C685.7 436.7 728.3 421.3 771.2 414.5C814 407.7 857 409.3 878.5 410.2L900 411L900 601L878.5 601C857 601 814 601 771.2 601C728.3 601 685.7 601 642.8 601C600 601 557 601 514.2 601C471.3 601 428.7 601 385.8 601C343 601 300 601 257.2 601C214.3 601 171.7 601 128.8 601C86 601 43 601 21.5 601L0 601Z" fill="#211818"></path><path d="M0 457L21.5 462.3C43 467.7 86 478.3 128.8 476.8C171.7 475.3 214.3 461.7 257.2 461.3C300 461 343 474 385.8 480C428.7 486 471.3 485 514.2 486.7C557 488.3 600 492.7 642.8 491C685.7 489.3 728.3 481.7 771.2 476C814 470.3 857 466.7 878.5 464.8L900 463L900 601L878.5 601C857 601 814 601 771.2 601C728.3 601 685.7 601 642.8 601C600 601 557 601 514.2 601C471.3 601 428.7 601 385.8 601C343 601 300 601 257.2 601C214.3 601 171.7 601 128.8 601C86 601 43 601 21.5 601L0 601Z" fill="#392d2a"></path><path d="M0 512L21.5 510.8C43 509.7 86 507.3 128.8 504.3C171.7 501.3 214.3 497.7 257.2 499C300 500.3 343 506.7 385.8 510.5C428.7 514.3 471.3 515.7 514.2 509.8C557 504 600 491 642.8 489.2C685.7 487.3 728.3 496.7 771.2 501.2C814 505.7 857 505.3 878.5 505.2L900 505L900 601L878.5 601C857 601 814 601 771.2 601C728.3 601 685.7 601 642.8 601C600 601 557 601 514.2 601C471.3 601 428.7 601 385.8 601C343 601 300 601 257.2 601C214.3 601 171.7 601 128.8 601C86 601 43 601 21.5 601L0 601Z" fill="#51433d"></path><path d="M0 514L21.5 516.3C43 518.7 86 523.3 128.8 529.5C171.7 535.7 214.3 543.3 257.2 547.2C300 551 343 551 385.8 551.5C428.7 552 471.3 553 514.2 548C557 543 600 532 642.8 529.2C685.7 526.3 728.3 531.7 771.2 535C814 538.3 857 539.7 878.5 540.3L900 541L900 601L878.5 601C857 601 814 601 771.2 601C728.3 601 685.7 601 642.8 601C600 601 557 601 514.2 601C471.3 601 428.7 601 385.8 601C343 601 300 601 257.2 601C214.3 601 171.7 601 128.8 601C86 601 43 601 21.5 601L0 601Z" fill="#695c50"></path><path d="M0 573L21.5 569.7C43 566.3 86 559.7 128.8 560.3C171.7 561 214.3 569 257.2 567.3C300 565.7 343 554.3 385.8 552.8C428.7 551.3 471.3 559.7 514.2 562.2C557 564.7 600 561.3 642.8 558.5C685.7 555.7 728.3 553.3 771.2 550.7C814 548 857 545 878.5 543.5L900 542L900 601L878.5 601C857 601 814 601 771.2 601C728.3 601 685.7 601 642.8 601C600 601 557 601 514.2 601C471.3 601 428.7 601 385.8 601C343 601 300 601 257.2 601C214.3 601 171.7 601 128.8 601C86 601 43 601 21.5 601L0 601Z" fill="#807665"></path></svg>